<svg xmlns="http://www.w3.org/2000/svg" xmlns:xlink="http://www.w3.org/1999/xlink" viewBox="0 0 281.29 67.71"><defs><style>.a{fill:url(#a);}.b{fill:url(#b);}</style><linearGradient id="a" x1="-3.43" y1="29.36" x2="28.17" y2="63.25" gradientTransform="translate(22.57 90.28) rotate(180)" gradientUnits="userSpaceOnUse"><stop offset="0.23" stop-color="#0032d4"/><stop offset="0.52" stop-color="#0032d4"/><stop offset="0.95" stop-color="#00ecd1"/></linearGradient><linearGradient id="b" x1="33.84" y1="2.67" x2="-1.05" y2="64.27" gradientUnits="userSpaceOnUse"><stop offset="0" stop-color="#ff3d81"/><stop offset="0.5" stop-color="#ff9dbf"/><stop offset="1" stop-color="#ffbfd5"/></linearGradient></defs><title>site_logo_h</title><path d="M72.78,43.51v5.67a.27.27,0,0,1-.28.28H68a.28.28,0,0,1-.28-.28V27.37a.29.29,0,0,1,.28-.29h9.36a7.54,7.54,0,0,1,8,7.91c0,4.57-3.17,8.23-8.43,8.23H73.07A.29.29,0,0,0,72.78,43.51Zm0-11.5V38.3a.28.28,0,0,0,.29.28h3.7a3.25,3.25,0,0,0,3.46-3.46c0-2-1.27-3.4-3.62-3.4H73.07A.29.29,0,0,0,72.78,32Z"/><path d="M98,49.18V27.37a.29.29,0,0,1,.29-.29h4.49a.29.29,0,0,1,.29.29V49.18a.28.28,0,0,1-.29.28H98.32A.28.28,0,0,1,98,49.18Z"/><path d="M125.1,42.43l-4.31,6.9a.31.31,0,0,1-.24.13h-4.93a.28.28,0,0,1-.24-.44l7.11-10.67a.25.25,0,0,0,0-.31L115.6,27.52a.28.28,0,0,1,.24-.44H121a.28.28,0,0,1,.24.14l4.18,6.64a.29.29,0,0,0,.48,0l4.15-6.63a.3.3,0,0,1,.25-.14h5a.29.29,0,0,1,.24.45l-7,10.41a.29.29,0,0,0,0,.31L135.64,49a.28.28,0,0,1-.24.44h-5.2a.31.31,0,0,1-.24-.13l-4.37-6.9A.29.29,0,0,0,125.1,42.43Z"/><path d="M148.26,27.08h15.8a.29.29,0,0,1,.29.29v4a.29.29,0,0,1-.29.29H153.33a.28.28,0,0,0-.29.28v3.65a.29.29,0,0,0,.29.28h9.88a.29.29,0,0,1,.29.29V40a.29.29,0,0,1-.29.29h-9.88a.28.28,0,0,0-.29.28v4a.29.29,0,0,0,.29.28h10.76a.29.29,0,0,1,.29.28v4a.28.28,0,0,1-.29.28H148.26a.27.27,0,0,1-.28-.28V27.37A.28.28,0,0,1,148.26,27.08Z"/><path d="M177.43,27.08h4.5a.28.28,0,0,1,.28.29V44.54a.29.29,0,0,0,.29.29h9.82a.27.27,0,0,1,.28.28v4.07a.27.27,0,0,1-.28.28H177.43a.28.28,0,0,1-.28-.28V27.37A.29.29,0,0,1,177.43,27.08Z"/><path d="M205.44,49.18V27.37a.29.29,0,0,1,.28-.29h4.5a.28.28,0,0,1,.28.29V49.18a.27.27,0,0,1-.28.28h-4.5A.28.28,0,0,1,205.44,49.18Z"/><path d="M223.6,40.58V27.37a.29.29,0,0,1,.28-.29h4.5a.28.28,0,0,1,.28.29V39.89c0,3.4,1.67,5.26,4.61,5.26s4.54-1.86,4.54-5.26V27.37a.29.29,0,0,1,.29-.29h4.49a.29.29,0,0,1,.29.29V40.58c0,5.55-3.4,9.28-9.58,9.28S223.6,46.13,223.6,40.58Z"/><path d="M260.87,37.42V49.18a.27.27,0,0,1-.28.28h-4.3a.28.28,0,0,1-.29-.28V27.37a.29.29,0,0,1,.29-.29h5.61a.3.3,0,0,1,.26.17l6.23,14a.29.29,0,0,0,.52,0l6.23-14a.3.3,0,0,1,.26-.17H281a.28.28,0,0,1,.28.29V49.18a.27.27,0,0,1-.28.28h-4.4a.27.27,0,0,1-.28-.28V37.35a.29.29,0,0,0-.55-.11L270.33,49.3a.29.29,0,0,1-.26.16h-3a.29.29,0,0,1-.26-.16l-5.42-12A.29.29,0,0,0,260.87,37.42Z"/><rect class="a" y="22.57" width="22.57" height="45.14" transform="translate(22.57 90.28) rotate(-180)"/><path class="b" d="M22.57,0a22.57,22.57,0,0,1,0,45.14A22.56,22.56,0,0,0,0,67.71V22.57A22.56,22.56,0,0,1,22.57,0Z"/></svg>